<svg width="50" height="50" viewBox="0 0 50 50" fill="none" xmlns="http://www.w3.org/2000/svg">
<path d="M25 8.05556C22.7778 8.05556 21 6.27778 21 4.05556C21 1.77778 22.7778 0 25 0C27.2222 0 29 1.77778 29 4C29 6.22222 27.2222 8.05556 25 8.05556Z" fill="#00D749"/>
<path opacity="0.1" d="M43.1667 18.5C41.7222 18.5 40.3889 17.7222 39.6667 16.5C39.1111 15.5556 39 14.5 39.2778 13.4444C39.5556 12.3889 40.2222 11.5556 41.1667 11C41.7778 10.6667 42.4444 10.4444 43.1667 10.4444C44.6111 10.4444 45.9444 11.2222 46.6667 12.4444C47.2222 13.3889 47.3333 14.4444 47.0556 15.5C46.7778 16.5556 46.1111 17.3889 45.1667 17.9444C44.5556 18.3333 43.8889 18.5 43.1667 18.5Z" fill="#00D749"/>
<path opacity="0.2" d="M46 29C43.7778 29 42 27.2222 42 25C42 22.7778 43.7778 21 46 21C48.2222 21 50 22.7778 50 25C50 27.2222 48.2222 29 46 29Z" fill="#00D749"/>
<path opacity="0.3" d="M43.1667 39.5C42.4444 39.5 41.7778 39.3333 41.1667 38.9444C40.2222 38.3889 39.5556 37.5556 39.2778 36.5C39 35.4444 39.1667 34.3889 39.6667 33.4444C40.3889 32.2222 41.7222 31.4444 43.1667 31.4444C43.8889 31.4444 44.5556 31.6111 45.1667 32C47.1111 33.1111 47.7222 35.5556 46.6111 37.5C45.9445 38.7222 44.6111 39.5 43.1667 39.5Z" fill="#00D749"/>
<path opacity="0.4" d="M35.5 47.1667C34.0556 47.1667 32.7222 46.3889 32 45.1667C30.8889 43.2222 31.5556 40.7778 33.4444 39.6667C34.0556 39.3333 34.7222 39.1111 35.4444 39.1111C36.8889 39.1111 38.2222 39.8889 38.9444 41.1111C39.5 42.0556 39.6111 43.1111 39.3333 44.1667C39.0556 45.2222 38.3889 46.0556 37.4444 46.6111C36.8889 47 36.2222 47.1667 35.5 47.1667Z" fill="#00D749"/>
<path opacity="0.5" d="M25 50C22.7778 50 21 48.2222 21 46C21 44.9445 21.4444 43.9444 22.1667 43.1667C22.9444 42.3889 23.9444 42 25 42C27.2222 42 29 43.7778 29 46C29 48.2222 27.2222 50 25 50Z" fill="#00D749"/>
<path opacity="0.58" d="M14.5 47.1667C13.7778 47.1667 13.1111 47 12.5 46.6111C10.5556 45.5 9.94444 43.0556 11.0556 41.1111C11.7778 39.8889 13.1111 39.1111 14.5556 39.1111C15.2778 39.1111 15.9444 39.2778 16.5556 39.6667C18.5 40.7778 19.1111 43.2222 18 45.1667C17.2778 46.4444 15.9444 47.1667 14.5 47.1667Z" fill="#00D749"/>
<path opacity="0.65" d="M6.83333 39.5C5.38889 39.5 4.05556 38.7222 3.33333 37.5C2.22222 35.5556 2.88889 33.1111 4.77778 32C5.38889 31.6667 6.05556 31.4444 6.77778 31.4444C8.22222 31.4444 9.55556 32.2222 10.2778 33.4444C11.3889 35.3889 10.7222 37.8333 8.83333 38.9444C8.22222 39.3333 7.55556 39.5 6.83333 39.5Z" fill="#00D749"/>
<path opacity="0.72" d="M4 29C1.77778 29 0 27.2222 0 25C0 22.7778 1.77778 21 4 21C5.05556 21 6.05556 21.4444 6.83333 22.1667C7.61111 22.9444 8 23.9444 8 25C8.05556 27.2222 6.22222 29 4 29Z" fill="#00D749"/>
<path opacity="0.8" d="M6.83334 18.5C6.11112 18.5 5.44445 18.3333 4.83334 17.9444C2.88889 16.8889 2.22223 14.4444 3.33334 12.5C4.05556 11.2778 5.3889 10.5 6.83334 10.5C7.55556 10.5 8.22223 10.6667 8.83334 11.0556C9.77778 11.6111 10.4445 12.4444 10.7222 13.5C11 14.5556 10.8333 15.6111 10.3333 16.5556C9.61112 17.7778 8.27778 18.5 6.83334 18.5Z" fill="#00D749"/>
<path opacity="0.88" d="M14.5 10.8333C13.0556 10.8333 11.7222 10.0556 11 8.83333C9.94444 6.94444 10.5556 4.44445 12.5 3.33333C13.1111 3 13.7778 2.77778 14.5 2.77778C15.9444 2.77778 17.2778 3.55556 18 4.77778C18.5556 5.72222 18.6667 6.77778 18.3889 7.83333C18.1111 8.88889 17.4444 9.72222 16.5 10.2778C15.8889 10.6667 15.2222 10.8333 14.5 10.8333Z" fill="#00D749"/>
</svg>
